<svg width="114" height="40" viewBox="0 0 114 40" fill="none" xmlns="http://www.w3.org/2000/svg">
<path d="M29.7189 20.5115C29.615 20.2629 29.5041 20.0183 29.3881 19.7786C29.7611 20.8895 29.9018 22.0297 29.8342 23.1427C29.8911 24.0641 29.8535 25.1045 29.6879 26.0868C29.6004 26.3382 29.5196 26.6692 29.4172 26.9183C26.5621 33.8752 18.7168 37.1406 11.7596 34.2855C11.7307 34.2736 11.7007 34.2609 11.6706 34.248L7.53397 39.7113C13.0864 40.5938 20.1779 39.2575 22.408 38.3249C29.3462 35.4245 32.619 27.4496 29.7189 20.5115Z" fill="#A9BE0E"/>
<path d="M27.5953 27.8202C27.5954 27.8201 25.3914 29.7971 24.0987 30.363C17.227 33.3709 9.53407 29.9714 6.61723 23.0684L0 23.9827C3.30235 28.5329 9.26173 32.6026 11.4979 33.5198C18.455 36.375 26.3003 33.1095 29.1555 26.1527C29.2578 25.9035 29.3386 25.5725 29.4262 25.3212C28.8627 26.4544 28.5055 27.0486 27.5953 27.8202Z" fill="#A9BE0E"/>
<path d="M18.8231 29.1833C11.9498 26.3624 8.74458 18.6884 11.4225 11.7953L5.79452 7.53402C4.91215 13.0864 6.24837 20.178 7.1809 22.4081C10.081 29.3463 17.7466 32.655 24.6848 29.7545C24.9329 29.6509 25.3764 29.4242 25.616 29.3078C23.0044 30.1849 19.0722 29.2857 18.8231 29.1833Z" fill="#A9BE0E"/>
<path d="M16.1015 25.3323C16.1273 25.4166 16.1538 25.5008 16.1821 25.5848C16.0657 25.3455 15.6178 24.4845 15.5141 24.2361C14.4377 21.6611 14.2188 19.0357 14.7232 16.6035C15.4888 12.5197 18.2873 8.95456 22.4966 7.045L21.5231 0C16.9725 3.30202 12.9032 9.26141 11.9859 11.4979C9.13046 18.4547 12.1351 26.1058 19.0919 28.9609C19.341 29.0633 19.9768 29.21 20.2282 29.2972C18.3891 28.3829 16.9362 27.0512 16.1015 25.3323Z" fill="#A9BE0E"/>
<path d="M16.0246 24.2361C13.1241 17.2979 16.4456 9.99168 23.3841 7.09158C25.6139 6.15877 32.7054 4.8225 38.2578 5.70487L30.5254 15.9175C28.0557 13.89 24.5749 13.2621 21.4215 14.5796C17.0799 16.3949 15.2177 21.1931 16.6925 25.5848C16.5762 25.3455 16.1283 24.4845 16.0246 24.2361Z" fill="#A9BE0E"/>
<path d="M109.326 27.503V17.2327H105.947C105.335 17.2327 104.767 17.3318 104.245 17.53C103.74 17.7102 103.299 18.0075 102.92 18.4219C102.56 18.8363 102.272 19.3678 102.055 20.0165C101.857 20.6651 101.758 21.4489 101.758 22.3678C101.758 23.2868 101.857 24.0705 102.055 24.7192C102.272 25.3678 102.56 25.8994 102.92 26.3138C103.299 26.7282 103.74 27.0345 104.245 27.2327C104.767 27.4129 105.335 27.503 105.947 27.503H109.326ZM105.947 29.3949C104.704 29.3949 103.569 29.2327 102.542 28.9084C101.533 28.5841 100.668 28.1156 99.9474 27.503C99.2267 26.8904 98.6681 26.1516 98.2717 25.2868C97.8933 24.4219 97.7041 23.4489 97.7041 22.3678C97.7041 21.2868 97.8933 20.3138 98.2717 19.4489C98.6681 18.5841 99.2267 17.8453 99.9474 17.2327C100.668 16.6201 101.533 16.1516 102.542 15.8273C103.569 15.503 104.704 15.3408 105.947 15.3408H109.326V10.476H113.11V29.3949H105.947Z" fill="#A9BE0E"/>
<path d="M88.3819 28.0435C89.2648 28.0435 90.0846 27.8904 90.8414 27.5841C91.6162 27.2778 92.3729 26.8453 93.1117 26.2868L94.1927 27.9084C93.8504 28.2147 93.445 28.494 92.9765 28.7462C92.5261 28.9985 92.0306 29.2147 91.49 29.3949C90.9675 29.557 90.418 29.6832 89.8414 29.7732C89.2648 29.8814 88.6882 29.9354 88.1117 29.9354C86.8324 29.9354 85.6612 29.7642 84.5981 29.4219C83.5531 29.0976 82.6612 28.6201 81.9225 27.9895C81.1837 27.3408 80.6072 26.548 80.1927 25.6111C79.7963 24.6742 79.5981 23.5931 79.5981 22.3678C79.5981 21.1606 79.7873 20.0886 80.1657 19.1516C80.5621 18.1967 81.1027 17.4039 81.7873 16.7733C82.49 16.1246 83.3189 15.6381 84.2738 15.3138C85.2288 14.9714 86.2828 14.8003 87.436 14.8003C88.5171 14.8003 89.5351 14.9624 90.49 15.2868C91.445 15.6111 92.2738 16.0886 92.9765 16.7192C93.6792 17.3318 94.2378 18.0796 94.6522 18.9624C95.0666 19.8453 95.2738 20.8453 95.2738 21.9624V23.8543H83.7333C83.9495 25.3498 84.463 26.4219 85.2738 27.0705C86.1026 27.7192 87.1387 28.0435 88.3819 28.0435ZM87.436 16.557C86.9135 16.557 86.427 16.6561 85.9765 16.8543C85.5261 17.0525 85.1297 17.3678 84.7873 17.8003C84.463 18.2327 84.1927 18.7913 83.9765 19.476C83.7783 20.1606 83.6702 20.9895 83.6522 21.9624H91.2198C91.2198 21.0255 91.1117 20.2147 90.8954 19.53C90.6792 18.8453 90.3909 18.2868 90.0306 17.8543C89.6882 17.4039 89.2828 17.0796 88.8144 16.8814C88.3639 16.6651 87.9045 16.557 87.436 16.557Z" fill="#A9BE0E"/>
<path d="M63.1758 26.6844L63.4459 26.693L70.9896 10.7106L76.7974 10.8971L76.1904 29.8062L72.2735 29.6805L72.7591 14.5532L72.489 14.5445L65.5202 29.4637L60.928 29.3163L54.9305 13.9808L54.6603 13.9722L54.1747 29.0995L50.2578 28.9738L50.8648 10.0646L56.6726 10.251L63.1758 26.6844Z" fill="#A9BE0E"/>
</svg>
